# xmcd
#
# Track frame offsets: 
#        150
#        22234
#        49091
#        76002
#        106392
#        133407
#        156289
#        178659
#        216037
#        239403
#        267679
#
# Disc length: 3837 seconds
#
# Revision: 1
# Processed by: cddbd v1.5.2PL0 Copyright (c) Steve Scherf et al.
# Submitted via: ExactAudioCopy v1.0b3
#
DISCID=a00efb0b
DTITLE=Terry Evans - Live Like a Hurricane
DYEAR=2003
DGENRE=Blues
TTITLE0=I Fancy You
TTITLE1=Rooftop Tomcat
TTITLE2=Honey Boy
TTITLE3=At The Dark End Of The Street
TTITLE4=Bald Head
TTITLE5=Natcha Bone Lover
TTITLE6=Just A Little Bit
TTITLE7=Come To The River
TTITLE8=In This Day and Time
TTITLE9=One Way Ticket To Memphis
TTITLE10=Put The Money In Your Pocket
EXTD=
EXTT0=
EXTT1=
EXTT2=
EXTT3=
EXTT4=
EXTT5=
EXTT6=
EXTT7=
EXTT8=
EXTT9=
EXTT10=
PLAYORDER=
